<svg fill="none" height="49" viewBox="0 0 48 49" width="48" xmlns="http://www.w3.org/2000/svg">
    <rect fill="#5669FF" height="48" rx="8" width="48" y="0.0625" />
    <path
        d="M20 16.0625H19.2002C18.0801 16.0625 17.5196 16.0625 17.0918 16.2805C16.7155 16.4722 16.4097 16.778 16.218 17.1543C16 17.5821 16 18.1426 16 19.2627V20.0625M20 16.0625H28M20 16.0625V14.0625M28 16.0625H28.8002C29.9203 16.0625 30.4796 16.0625 30.9074 16.2805C31.2837 16.4722 31.5905 16.778 31.7822 17.1543C32 17.5817 32 18.1415 32 19.2594V20.0625M28 16.0625V14.0625M16 20.0625V28.8627C16 29.9828 16 30.5426 16.218 30.9704C16.4097 31.3467 16.7155 31.653 17.0918 31.8447C17.5192 32.0625 18.079 32.0625 19.1969 32.0625H28.8031C29.921 32.0625 30.48 32.0625 30.9074 31.8447C31.2837 31.653 31.5905 31.3467 31.7822 30.9704C32 30.543 32 29.984 32 28.8661V20.0625M16 20.0625H32M28 28.0625H28.002L28.002 28.0645L28 28.0645V28.0625ZM24 28.0625H24.002L24.002 28.0645L24 28.0645V28.0625ZM20 28.0625H20.002L20.002 28.0645L20 28.0645V28.0625ZM28.002 24.0625V24.0645L28 24.0645V24.0625H28.002ZM24 24.0625H24.002L24.002 24.0645L24 24.0645V24.0625ZM20 24.0625H20.002L20.002 24.0645L20 24.0645V24.0625Z"
        stroke="#F2FEFF" stroke-linecap="round" stroke-linejoin="round" stroke-width="2" />
</svg>
