<svg fill="none" height="21" viewBox="0 0 20 21" width="20" xmlns="http://www.w3.org/2000/svg">
    <path clip-rule="evenodd"
        d="M19.4302 2.21673C19.7231 1.92384 19.7231 1.44896 19.4302 1.15607C19.1373 0.863178 18.6625 0.863178 18.3696 1.15607L15.3119 4.21371C13.7724 3.24605 11.9505 2.6864 9.99783 2.6864C5.44272 2.6864 1.59895 5.732 0.39176 9.89797C0.242623 10.4126 0.242623 10.9602 0.39176 11.4748C0.923859 13.3111 1.9682 14.9297 3.35992 16.1657L0.369572 19.1561C0.076679 19.449 0.076679 19.9238 0.369572 20.2167C0.662466 20.5096 1.13734 20.5096 1.43023 20.2167L19.4302 2.21673ZM6.65098 12.8747L12.1881 7.3375C11.5594 6.9258 10.8076 6.6864 9.99988 6.6864C7.79074 6.6864 5.99988 8.47726 5.99988 10.6864C5.99988 11.4941 6.23927 12.2459 6.65098 12.8747Z"
        fill="#7B7B7B" fill-rule="evenodd" />
    <path
        d="M9.99988 14.6864C9.7263 14.6864 9.45913 14.6589 9.20099 14.6066L5.96687 17.8407C7.19995 18.3845 8.56363 18.6864 9.99783 18.6864C14.5529 18.6864 18.3967 15.6408 19.6039 11.4748C19.753 10.9602 19.753 10.4126 19.6039 9.89797C19.2043 8.51903 18.5159 7.26285 17.6084 6.19923L13.9201 9.88751C13.9724 10.1457 13.9999 10.4128 13.9999 10.6864C13.9999 12.8955 12.209 14.6864 9.99988 14.6864Z"
        fill="#7B7B7B" />
</svg>
