<svg fill="none" height="25" viewBox="0 0 21 25" width="21" xmlns="http://www.w3.org/2000/svg">
    <path clip-rule="evenodd"
        d="M4.95833 8.49363V6.18038C4.95833 3.14614 7.43942 0.686401 10.5 0.686401C13.5606 0.686401 16.0417 3.14614 16.0417 6.18038V8.49363H16.3333C18.9107 8.49363 21 10.565 21 13.1201V20.0599C21 22.615 18.9107 24.6864 16.3333 24.6864H4.66667C2.08934 24.6864 0 22.615 0 20.0599V13.1201C0 10.565 2.08934 8.49363 4.66667 8.49363H4.95833ZM6.70833 6.18038C6.70833 4.10432 8.40592 2.42134 10.5 2.42134C12.5941 2.42134 14.2917 4.10432 14.2917 6.18038V8.49363H6.70833V6.18038ZM11.6667 15.4334C11.6667 15.7267 11.5565 15.9946 11.375 16.1984V20.0599C11.375 20.539 10.9832 20.9274 10.5 20.9274C10.0168 20.9274 9.625 20.539 9.625 20.0599V16.1984C9.44348 15.9946 9.33333 15.7267 9.33333 15.4334C9.33333 14.7946 9.85567 14.2768 10.5 14.2768C11.1443 14.2768 11.6667 14.7946 11.6667 15.4334Z"
        fill="#7B7B7B" fill-rule="evenodd" />
</svg>
