<svg width="24" height="21" viewBox="0 0 24 21" fill="none" xmlns="http://www.w3.org/2000/svg">
    <path fill-rule="evenodd" clip-rule="evenodd"
        d="M4.8 0.429199H19.2C21.851 0.429199 24 2.65498 24 5.40063V15.3435C24 18.0891 21.851 20.3149 19.2 20.3149H4.8C2.14903 20.3149 0 18.0891 0 15.3435V5.40063C0 2.65498 2.14903 0.429199 4.8 0.429199ZM5.52 3.59848C5.22177 3.18664 4.65764 3.10317 4.26 3.41206C3.86235 3.72094 3.78177 4.30521 4.08 4.71706L7.44 9.35706C9.72 12.5056 14.28 12.5056 16.56 9.35706L19.92 4.71706C20.2182 4.30521 20.1376 3.72094 19.74 3.41206C19.3424 3.10317 18.7782 3.18664 18.48 3.59848L15.12 8.23848C13.56 10.3928 10.44 10.3928 8.88 8.23848L5.52 3.59848Z"
        fill="#7B7B7B" />
</svg>
