<svg fill="none" height="46" viewBox="0 0 46 46" width="46" xmlns="http://www.w3.org/2000/svg">
    <rect fill="#5669FF" height="46" rx="8" width="46" />
    <path
        d="M31.94 22C31.7135 19.9721 30.8042 18.0815 29.3613 16.6387C27.9185 15.1958 26.0279 14.2865 24 14.06V13C24 12.45 23.55 12 23 12C22.45 12 22 12.45 22 13V14.06C19.9721 14.2865 18.0815 15.1958 16.6387 16.6387C15.1958 18.0815 14.2865 19.9721 14.06 22H13C12.45 22 12 22.45 12 23C12 23.55 12.45 24 13 24H14.06C14.2865 26.0279 15.1958 27.9185 16.6387 29.3613C18.0815 30.8042 19.9721 31.7135 22 31.94V33C22 33.55 22.45 34 23 34C23.55 34 24 33.55 24 33V31.94C26.0279 31.7135 27.9185 30.8042 29.3613 29.3613C30.8042 27.9185 31.7135 26.0279 31.94 24H33C33.55 24 34 23.55 34 23C34 22.45 33.55 22 33 22H31.94ZM23 30C19.13 30 16 26.87 16 23C16 19.13 19.13 16 23 16C26.87 16 30 19.13 30 23C30 26.87 26.87 30 23 30Z"
        fill="#F2FEFF" />
    <circle cx="23" cy="23" fill="#F2FEFF" r="4" />
</svg>
