<svg fill="none" height="47" viewBox="0 0 46 47" width="46" xmlns="http://www.w3.org/2000/svg">
    <rect fill="#5669FF" height="46" rx="8" width="46" y="0.0625" />
    <path
        d="M31.94 22.0625C31.7135 20.0346 30.8042 18.144 29.3613 16.7012C27.9185 15.2583 26.0279 14.349 24 14.1225V13.0625C24 12.5125 23.55 12.0625 23 12.0625C22.45 12.0625 22 12.5125 22 13.0625V14.1225C19.9721 14.349 18.0815 15.2583 16.6387 16.7012C15.1958 18.144 14.2865 20.0346 14.06 22.0625H13C12.45 22.0625 12 22.5125 12 23.0625C12 23.6125 12.45 24.0625 13 24.0625H14.06C14.2865 26.0904 15.1958 27.981 16.6387 29.4238C18.0815 30.8667 19.9721 31.776 22 32.0025V33.0625C22 33.6125 22.45 34.0625 23 34.0625C23.55 34.0625 24 33.6125 24 33.0625V32.0025C26.0279 31.776 27.9185 30.8667 29.3613 29.4238C30.8042 27.981 31.7135 26.0904 31.94 24.0625H33C33.55 24.0625 34 23.6125 34 23.0625C34 22.5125 33.55 22.0625 33 22.0625H31.94ZM23 30.0625C19.13 30.0625 16 26.9325 16 23.0625C16 19.1925 19.13 16.0625 23 16.0625C26.87 16.0625 30 19.1925 30 23.0625C30 26.9325 26.87 30.0625 23 30.0625Z"
        fill="#F2FEFF" />
    <circle cx="23" cy="23.0625" fill="#F2FEFF" r="4" />
</svg>
